<svg width="48" height="48" viewBox="0 0 48 48" fill="none" xmlns="http://www.w3.org/2000/svg">
<g clip-path="url(#clip0_176_425)">
<path d="M24 0C10.7511 0 0 10.7511 0 24C0 37.2489 10.7511 48 24 48C37.2489 48 48 37.2489 48 24C48 10.7511 37.2489 -2e-07 24 0ZM24 1C36.7085 1 47 11.2915 47 24C47 36.7085 36.7085 47 24 47C11.2915 47 1 36.7085 1 24C1 11.2915 11.2915 1 24 1ZM23.5 12.0762C22.673 12.0762 22 12.7482 22 13.5762C22 14.4042 22.673 15.0762 23.5 15.0762C24.327 15.0762 25 14.4032 25 13.5762C25 12.7492 24.327 12.0762 23.5 12.0762ZM31.5 12.0762C30.673 12.0762 30 12.7482 30 13.5762C30 14.4042 30.673 15.0762 31.5 15.0762C32.327 15.0762 33 14.4032 33 13.5762C33 12.7492 32.327 12.0762 31.5 12.0762ZM26.6621 13.0703C26.5973 13.0739 26.5327 13.0908 26.4707 13.1211C26.2227 13.2421 26.1202 13.5411 26.2422 13.7891C26.7372 14.8071 27 15.9422 27 17.0762C27 19.0112 26.2656 20.849 24.9316 22.25C24.7416 22.45 24.7482 22.766 24.9492 22.957C25.0462 23.049 25.1709 23.0938 25.2949 23.0938C25.4269 23.0938 25.5583 23.0424 25.6562 22.9395C27.1672 21.3515 28 19.2682 28 17.0762C28 15.7912 27.7026 14.5046 27.1406 13.3516C27.0491 13.1648 26.8565 13.0596 26.6621 13.0703ZM23.5 13.0762C23.775 13.0762 24 13.3002 24 13.5762C24 13.8522 23.775 14.0762 23.5 14.0762C23.225 14.0762 23 13.8512 23 13.5762C23 13.3012 23.225 13.0762 23.5 13.0762ZM31.5 13.0762C31.775 13.0762 32 13.3002 32 13.5762C32 13.8522 31.775 14.0762 31.5 14.0762C31.225 14.0762 31 13.8512 31 13.5762C31 13.3012 31.225 13.0762 31.5 13.0762ZM16.5 14.0762C15.673 14.0762 15 14.7492 15 15.5762C15 15.9602 15.1448 16.3102 15.3828 16.5762C15.1448 16.8412 15 17.1922 15 17.5762C15 17.9602 15.1448 18.3102 15.3828 18.5762C15.1448 18.8412 15 19.1922 15 19.5762C15 20.4032 15.673 21.0762 16.5 21.0762C16.776 21.0762 17 20.8522 17 20.5762C17 20.3002 16.776 20.0762 16.5 20.0762C16.225 20.0762 16 19.8522 16 19.5762C16 19.3002 16.225 19.0762 16.5 19.0762C16.776 19.0762 17 18.8522 17 18.5762C17 18.3002 16.776 18.0762 16.5 18.0762C16.225 18.0762 16 17.8522 16 17.5762C16 17.3002 16.225 17.0762 16.5 17.0762C16.776 17.0762 17 16.8522 17 16.5762C17 16.3002 16.776 16.0762 16.5 16.0762C16.225 16.0762 16 15.8522 16 15.5762C16 15.3002 16.225 15.0762 16.5 15.0762C16.776 15.0762 17 14.8522 17 14.5762C17 14.3002 16.776 14.0762 16.5 14.0762ZM19.9785 14.248C19.852 14.2669 19.7324 14.3324 19.6504 14.4434C19.4864 14.6654 19.5339 14.9786 19.7559 15.1426C19.8299 15.1986 19.9027 15.2545 19.9727 15.3105C20.0437 15.3685 20.1146 15.4292 20.1836 15.4902C20.2786 15.5752 20.3966 15.6172 20.5156 15.6172C20.6526 15.6172 20.7887 15.5602 20.8887 15.4492C21.0727 15.2432 21.0556 14.9281 20.8496 14.7441C20.7706 14.6731 20.6885 14.6022 20.6035 14.5332C20.5205 14.4682 20.4356 14.4038 20.3496 14.3398C20.2386 14.2583 20.105 14.2292 19.9785 14.248ZM21.6348 16.0801C21.5703 16.0881 21.5053 16.11 21.4453 16.1445C21.2053 16.2825 21.1257 16.5872 21.2637 16.8262C21.7457 17.6602 22 18.6112 22 19.5762C22 20.1622 21.8988 20.7496 21.7148 21.3066L20.707 20.2988C20.594 20.1858 20.4353 20.1342 20.2773 20.1582C20.1193 20.1822 19.9842 20.2789 19.9102 20.4199L12.1328 35.2695C12.0318 35.4635 12.0687 35.6995 12.2227 35.8535C12.3187 35.9495 12.4462 36 12.5762 36C12.6552 36 12.7346 35.9814 12.8086 35.9434L27.6582 28.166C27.7992 28.092 27.8959 27.9549 27.9199 27.7969C27.9439 27.6399 27.8923 27.4802 27.7793 27.3672L26.2441 25.834C27.0791 25.35 28.036 25.0742 29.002 25.0742C30.584 25.0742 32.0908 25.7573 33.1348 26.9473C33.2338 27.0593 33.3708 27.1172 33.5098 27.1172C33.6268 27.1172 33.7448 27.0762 33.8398 26.9922C34.0468 26.8102 34.0687 26.4932 33.8867 26.2852C32.6507 24.8822 30.87 24.0762 29 24.0762C27.77 24.0762 26.5575 24.4523 25.5195 25.1113L22.4883 22.0801C22.8173 21.2881 23 20.4322 23 19.5762C23 18.4362 22.6989 17.3132 22.1289 16.3262C22.0254 16.1469 21.8283 16.0561 21.6348 16.0801ZM33.7695 16.5996C33.6415 16.5995 33.5135 16.6486 33.416 16.7461C33.221 16.9421 33.221 17.2571 33.416 17.4531C33.511 17.5471 33.5625 17.6726 33.5625 17.8066C33.5625 17.9396 33.51 18.0652 33.416 18.1602C33.227 18.3482 32.898 18.3482 32.709 18.1602C32.514 17.9652 32.197 17.9652 32.002 18.1602C31.904 18.2582 31.8555 18.3876 31.8555 18.5156C31.8555 18.6436 31.9049 18.7711 32.002 18.8691C32.197 19.0641 32.197 19.3812 32.002 19.5762C31.807 19.7712 31.4899 19.7712 31.2949 19.5762C31.0999 19.3812 30.7829 19.3812 30.5879 19.5762C30.4899 19.6742 30.4414 19.8017 30.4414 19.9297C30.4414 20.0577 30.4909 20.1852 30.5879 20.2832C30.6829 20.3782 30.7344 20.5047 30.7344 20.6387C30.7344 20.7727 30.6819 20.8972 30.5879 20.9922C30.3929 21.1872 30.0759 21.1872 29.8809 20.9922C29.6859 20.7982 29.3688 20.7972 29.1738 20.9922C28.9788 21.1882 28.9788 21.5032 29.1738 21.6992C29.4648 21.9892 29.8494 22.1367 30.2324 22.1367C30.6164 22.1367 31.001 21.9893 31.293 21.6973C31.564 21.4263 31.7105 21.0767 31.7305 20.7207C32.0855 20.7007 32.435 20.5552 32.707 20.2832C32.979 20.0112 33.1245 19.6607 33.1445 19.3047C33.4995 19.2847 33.851 19.1392 34.123 18.8672C34.406 18.5842 34.5625 18.2076 34.5625 17.8066C34.5625 17.4056 34.406 17.0291 34.123 16.7461C34.0255 16.6491 33.8975 16.5997 33.7695 16.5996ZM20.4805 21.4863L22.0449 23.0527L19.9941 22.4102L20.4805 21.4863ZM16.5 22.0762C16.3674 22.0762 16.2402 22.1288 16.1464 22.2226C16.0527 22.3164 16 22.4436 16 22.5762C16 22.7088 16.0527 22.836 16.1464 22.9297C16.2402 23.0235 16.3674 23.0762 16.5 23.0762C16.6326 23.0762 16.7598 23.0235 16.8536 22.9297C16.9473 22.836 17 22.7088 17 22.5762C17 22.4436 16.9473 22.3164 16.8536 22.2226C16.7598 22.1288 16.6326 22.0762 16.5 22.0762ZM35.5 22.0762C34.673 22.0762 34 22.7492 34 23.5762C34 24.4032 34.673 25.0762 35.5 25.0762C36.327 25.0762 37 24.4032 37 23.5762C37 22.7492 36.327 22.0762 35.5 22.0762ZM35.5 23.0762C35.775 23.0762 36 23.3002 36 23.5762C36 23.8522 35.775 24.0762 35.5 24.0762C35.225 24.0762 35 23.8522 35 23.5762C35 23.3002 35.225 23.0762 35.5 23.0762ZM19.5254 23.3105L23.5703 24.5742L25.0098 26.0156C25.0168 26.0276 25.0194 26.0407 25.0273 26.0527C25.0703 26.1117 25.1246 26.1555 25.1836 26.1895L26.0957 27.1016L18.7422 24.8047L19.5254 23.3105ZM18.2715 25.7051L25.7422 28.0391L23.666 29.127L17.4883 27.1973L18.2715 25.7051ZM12.5 26.0762C11.673 26.0762 11 26.7482 11 27.5762C11 28.4042 11.673 29.0762 12.5 29.0762C13.327 29.0762 14 28.4032 14 27.5762C14 26.7492 13.327 26.0762 12.5 26.0762ZM12.5 27.0762C12.775 27.0762 13 27.3002 13 27.5762C13 27.8522 12.775 28.0762 12.5 28.0762C12.225 28.0762 12 27.8512 12 27.5762C12 27.3002 12.225 27.0762 12.5 27.0762ZM34.6855 28.0723C34.6206 28.0682 34.5538 28.0766 34.4883 28.0996C34.2273 28.1916 34.0926 28.4773 34.1836 28.7383C34.2386 28.8943 34.2871 29.0529 34.3281 29.2109C34.3681 29.3709 34.4017 29.5304 34.4277 29.6934C34.4677 29.9394 34.6809 30.1152 34.9219 30.1152C34.9479 30.1152 34.975 30.1134 35.002 30.1094C35.274 30.0664 35.459 29.8082 35.416 29.5352C35.385 29.3432 35.3449 29.1529 35.2969 28.9629C35.2479 28.7739 35.191 28.5893 35.127 28.4062C35.058 28.2112 34.8803 28.0845 34.6855 28.0723ZM17.0176 28.0977L22.4141 29.7832L20.3379 30.8711L16.2363 29.5898L17.0176 28.0977ZM29.0547 29.4883C28.7612 29.472 28.4697 29.5416 28.2109 29.6953C27.8899 29.8853 27.6549 30.1822 27.5449 30.5352C27.1919 30.4652 26.8192 30.5198 26.4902 30.7168C26.1602 30.9128 25.9312 31.2147 25.8242 31.5547C25.4592 31.4807 25.0905 31.5453 24.7695 31.7363C24.4245 31.9413 24.1791 32.2663 24.0801 32.6543C23.9811 33.0423 24.0391 33.448 24.2441 33.793C24.3381 33.95 24.5058 34.0371 24.6758 34.0371C24.7628 34.0371 24.8497 34.0148 24.9297 33.9668C25.1677 33.8258 25.2465 33.5182 25.1055 33.2812C25.0375 33.1662 25.0188 33.0333 25.0508 32.9043C25.0838 32.7753 25.1653 32.6657 25.2793 32.5977C25.3933 32.5297 25.5282 32.511 25.6582 32.543C25.7882 32.576 25.8968 32.6575 25.9648 32.7715C26.1058 33.0095 26.4114 33.0873 26.6504 32.9473C26.8074 32.8543 26.8945 32.6866 26.8945 32.5156C26.8945 32.4296 26.8732 32.3417 26.8262 32.2617C26.6852 32.0247 26.764 31.7172 27.002 31.5762C27.239 31.4362 27.5455 31.514 27.6875 31.752C27.8295 31.989 28.1341 32.0668 28.3711 31.9258C28.5281 31.8328 28.6172 31.6651 28.6172 31.4941C28.6172 31.4071 28.5949 31.3202 28.5469 31.2402C28.4789 31.1252 28.4602 30.9903 28.4922 30.8613C28.5252 30.7323 28.6067 30.6246 28.7207 30.5566C28.8347 30.4896 28.9696 30.47 29.0996 30.502C29.2296 30.535 29.3382 30.6165 29.4062 30.7305C29.5483 30.9675 29.8538 31.0433 30.0918 30.9043C30.3288 30.7633 30.4076 30.4587 30.2676 30.2207C30.0616 29.8777 29.7347 29.6322 29.3477 29.5332C29.2507 29.5082 29.1525 29.4937 29.0547 29.4883ZM15.7656 30.4902L19.0859 31.5273L17.0078 32.6152L14.9824 31.9824L15.7656 30.4902ZM32.5 32.0762C31.673 32.0762 31 32.7492 31 33.5762C31 34.4032 31.673 35.0762 32.5 35.0762C33.327 35.0762 34 34.4032 34 33.5762C34 32.7492 33.327 32.0762 32.5 32.0762ZM14.5117 32.8828L15.7559 33.2715L13.7617 34.3164L14.5117 32.8828ZM32.5 33.0762C32.775 33.0762 33 33.3002 33 33.5762C33 33.8522 32.775 34.0762 32.5 34.0762C32.225 34.0762 32 33.8522 32 33.5762C32 33.3002 32.225 33.0762 32.5 33.0762Z" fill="url(#paint0_linear_176_425)"/>
</g>
<defs>
<linearGradient id="paint0_linear_176_425" x1="0" y1="24" x2="48" y2="24" gradientUnits="userSpaceOnUse">
<stop stop-color="#5B20FF"/>
<stop offset="1" stop-color="#8603D8"/>
</linearGradient>
<clipPath id="clip0_176_425">
<rect width="48" height="48" fill="white"/>
</clipPath>
</defs>
</svg>
