<svg width="151" height="151" viewBox="0 0 151 151" fill="none" xmlns="http://www.w3.org/2000/svg">
<g clip-path="url(#clip0_176_632)">
<g filter="url(#filter0_d_176_632)">
<path d="M129.766 117.955V25.9626C129.766 24.6602 130.823 23.6032 132.125 23.6032C133.43 23.6032 134.484 22.5485 134.484 21.2438C134.484 14.772 129.239 9.50592 122.78 9.45638C122.746 9.45402 122.721 9.4375 122.688 9.4375H84.9375C81.0351 9.4375 77.8594 6.26178 77.8594 2.35938C77.8594 1.05464 76.8047 0 75.5 0C74.1953 0 73.1406 1.05464 73.1406 2.35938C73.1406 6.26178 69.9649 9.4375 66.0625 9.4375C66.046 9.4375 66.0318 9.44694 66.0153 9.44694H28.3125C21.8077 9.44694 16.5156 14.739 16.5156 21.2438C16.5156 22.5485 17.5703 23.6032 18.875 23.6032C20.1774 23.6032 21.2344 24.6602 21.2344 25.9626V117.955C21.2344 132.264 32.8779 143.908 47.1875 143.908H68.3511C68.377 143.908 68.3959 143.922 68.4195 143.922C71.0219 143.922 73.1383 146.038 73.1383 148.641C73.1383 149.945 74.1929 151 75.4976 151H75.5024C76.8071 151 77.8617 149.945 77.8617 148.641C77.8617 146.038 79.9781 143.922 82.5805 143.922C82.6064 143.922 82.6253 143.908 82.6489 143.908H103.812C118.122 143.908 129.766 132.267 129.766 117.955ZM75.5 142.466C73.7965 140.517 71.3333 139.26 68.5587 139.217C68.5092 139.215 68.4691 139.189 68.4195 139.189H47.1875C35.4779 139.189 25.9531 129.664 25.9531 117.955V25.9626C25.9531 22.9897 24.1081 20.4511 21.5081 19.4059C22.3244 16.3953 25.0495 14.1657 28.3125 14.1657H66.0625C66.0955 14.1657 66.1215 14.1492 66.1545 14.1468C69.9885 14.1161 73.3648 12.2334 75.5 9.36436C77.6517 12.2546 81.0634 14.1562 84.9375 14.1562H122.64C122.657 14.1562 122.671 14.1657 122.688 14.1657C125.951 14.1657 128.676 16.3953 129.494 19.4059C126.892 20.4511 125.047 22.9897 125.047 25.9626V117.955C125.047 129.664 115.522 139.189 103.812 139.189H82.5805C82.5309 139.189 82.4908 139.215 82.4413 139.217C79.6667 139.257 77.2035 140.517 75.5 142.466Z" fill="#7D49C3"/>
</g>
<g filter="url(#filter1_d_176_632)">
<path d="M48.4073 107.672C54.905 115.406 64.6327 120.338 75.5 120.338C86.3673 120.338 96.095 115.406 102.593 107.672C102.609 107.651 102.633 107.635 102.647 107.613C107.788 101.467 110.891 93.5657 110.891 84.9469C110.891 78.0245 108.864 71.5811 105.417 66.1215C105.384 66.0719 105.363 66.02 105.327 65.9728C100.549 58.4889 93.0467 52.9373 84.2179 50.6865C84.2085 50.6841 84.2014 50.6817 84.1919 50.6794C81.4055 49.9716 78.5058 49.554 75.5 49.554C72.4942 49.554 69.5898 49.9716 66.7986 50.6817C66.7939 50.6841 66.7915 50.6841 66.7868 50.6841C57.9533 52.9326 50.4458 58.4913 45.6681 65.9799C45.6421 66.0153 45.628 66.0483 45.6067 66.0837C42.1432 71.5528 40.1094 78.008 40.1094 84.9469C40.1094 93.5657 43.212 101.467 48.3507 107.611C48.3672 107.635 48.3908 107.651 48.4073 107.672ZM48.9287 100.203C46.8147 96.5338 45.418 92.4026 44.9815 87.9858L50.158 93.0302L48.9287 100.203ZM68.9386 114.894L75.5 111.447L82.0614 114.894C79.9474 115.357 77.7532 115.619 75.5 115.619C73.2468 115.619 71.0526 115.359 68.9386 114.894ZM100.84 93.0302L106.016 87.9882C105.577 92.4049 104.183 96.5338 102.069 100.203L100.84 93.0302ZM98.0603 64.2387L91.1662 63.2312L88.0991 57.0143C91.8977 58.7343 95.2739 61.2045 98.0603 64.2387ZM81.816 54.9357L87.4809 66.4282C87.8254 67.1242 88.4884 67.6079 89.2552 67.7188L102.003 69.5827C104.081 73.1548 105.471 77.1681 105.96 81.4598L96.6612 90.5127C96.1044 91.0554 95.8496 91.8387 95.9817 92.6031L98.1948 105.509C95.4178 108.569 92.0487 111.063 88.2477 112.811L76.5971 106.696C75.9105 106.337 75.0895 106.337 74.4029 106.696L62.7523 112.811C58.9537 111.065 55.5822 108.569 52.8052 105.509L55.0183 92.6031C55.1504 91.8387 54.8956 91.0577 54.3388 90.5127L45.0428 81.4574C45.5312 77.1657 46.9185 73.1524 48.9971 69.5827L61.7448 67.7188C62.5116 67.6055 63.177 67.1242 63.5191 66.4282L69.184 54.9357C71.2225 54.5063 73.3341 54.2751 75.5 54.2751C77.6659 54.2751 79.7775 54.5086 81.816 54.9357ZM62.9009 57.0143L59.8338 63.2312L52.9397 64.2387C55.7261 61.2045 59.1023 58.7343 62.9009 57.0143Z" fill="#7D49C3"/>
</g>
<g filter="url(#filter2_d_176_632)">
<path d="M60.4614 78.789C59.6309 79.3906 59.2864 80.4547 59.6026 81.4268L64.8168 97.4729C65.1329 98.4449 66.0389 99.1032 67.0606 99.1032H83.9442C84.9682 99.1032 85.8718 98.4449 86.188 97.4729L91.3975 81.4268C91.7137 80.4547 91.3668 79.3906 90.5387 78.789L76.885 68.882C76.0592 68.2827 74.9409 68.2827 74.1151 68.882L60.4614 78.789ZM86.3791 81.6013L82.229 94.3844H68.7735L64.6186 81.6013L75.5 73.7045L86.3791 81.6013Z" fill="#7D49C3"/>
</g>
<g filter="url(#filter3_d_176_632)">
<path d="M97.914 123.773C98.006 123.721 98.0626 123.631 98.1452 123.568C104.69 119.715 110.161 114.262 114.036 107.734C114.137 107.618 114.241 107.505 114.319 107.368C114.361 107.297 114.364 107.217 114.394 107.142C118.148 100.594 120.326 93.0326 120.328 84.9588C120.328 84.9588 120.328 84.9564 120.328 84.9541C120.328 84.9517 120.328 84.9493 120.328 84.947C120.328 76.8685 118.148 69.302 114.392 62.75C114.361 62.6816 114.361 62.6061 114.323 62.54C114.274 62.4551 114.194 62.4032 114.139 62.3277C110.254 55.7167 104.737 50.1981 98.1263 46.3122C98.0508 46.2579 98.0013 46.1754 97.9163 46.1282C97.8479 46.0881 97.7701 46.0857 97.6993 46.055C91.1473 42.2989 83.5808 40.1189 75.4999 40.1189C67.4214 40.1189 59.8549 42.2989 53.3029 46.0527C53.2321 46.0857 53.1543 46.0881 53.0859 46.1258C53.0009 46.1754 52.9467 46.2579 52.8712 46.3146C46.2696 50.1981 40.7558 55.7072 36.8746 62.3088C36.8132 62.3866 36.7283 62.4409 36.6788 62.5306C36.6363 62.6013 36.6363 62.6792 36.6033 62.7547C32.8519 69.302 30.6765 76.8614 30.6718 84.9305C30.6718 84.9375 30.6694 84.9423 30.6694 84.947C30.6694 84.9517 30.6718 84.9564 30.6718 84.9635C30.6765 93.0302 32.8495 100.585 36.5985 107.132C36.6316 107.208 36.6339 107.288 36.674 107.361C36.7566 107.505 36.8628 107.623 36.969 107.743C40.8407 114.265 46.305 119.71 52.8405 123.563C52.9254 123.629 52.9868 123.719 53.0835 123.775C53.192 123.837 53.31 123.872 53.4232 123.917C59.9493 127.628 67.4733 129.777 75.5023 129.777C83.5359 129.777 91.0647 127.626 97.5907 123.91C97.6993 123.863 97.8102 123.832 97.914 123.773ZM42.0204 106.979C43.0727 106.304 43.4384 104.926 42.8037 103.829C42.1761 102.737 40.81 102.357 39.6964 102.923C37.2993 98.1666 35.8341 92.8816 35.5109 87.2804C36.7543 87.2143 37.7476 86.2069 37.7476 84.947C37.7476 83.6871 36.7543 82.6796 35.5109 82.6136C35.8365 77.0171 37.2993 71.7345 39.6917 66.9803C40.0362 67.1549 40.3971 67.2517 40.7581 67.2517C41.5745 67.2517 42.3672 66.8293 42.8013 66.0743C43.4384 64.9749 43.075 63.5923 42.018 62.9175C45.0192 58.371 48.9168 54.4733 53.4634 51.4698C53.9093 52.1705 54.6643 52.5693 55.4476 52.5693C55.8487 52.5693 56.2521 52.4678 56.6249 52.2531C57.7173 51.6208 58.0948 50.2524 57.5262 49.1411C62.2827 46.744 67.5677 45.2788 73.1665 44.9556C73.2326 46.2013 74.24 47.197 75.5023 47.197C76.7645 47.197 77.772 46.2013 77.8381 44.9556C83.4345 45.2812 88.7195 46.744 93.4736 49.1387C92.9003 50.25 93.2778 51.6255 94.3702 52.2555C94.743 52.4725 95.1488 52.574 95.5499 52.574C96.3356 52.574 97.0906 52.1729 97.5388 51.4674C102.085 54.4686 105.981 58.3686 108.984 62.9175C107.922 63.5899 107.557 64.9749 108.191 66.0743C108.628 66.8317 109.421 67.2564 110.237 67.2564C110.6 67.2564 110.971 67.1597 111.313 66.9827C113.708 71.7345 115.17 77.0171 115.494 82.6112C114.248 82.6725 113.25 83.68 113.248 84.9423C113.245 86.2069 114.243 87.2214 115.494 87.2828C115.168 92.8816 113.703 98.1666 111.308 102.923C110.19 102.347 108.824 102.727 108.194 103.82C107.554 104.919 107.922 106.306 108.982 106.981C105.981 111.53 102.081 115.425 97.5318 118.429C96.8546 117.367 95.4673 117.006 94.3749 117.641C93.2802 118.273 92.9027 119.646 93.4736 120.755C88.7195 123.152 83.4345 124.615 77.8381 124.938C77.772 123.693 76.7645 122.697 75.5023 122.697C74.24 122.697 73.2326 123.693 73.1665 124.938C67.5677 124.613 62.2827 123.148 57.5262 120.753C58.0901 119.642 57.715 118.276 56.6226 117.646C55.5255 117.013 54.1476 117.372 53.4704 118.429C48.9192 115.425 45.0215 111.525 42.0204 106.979ZM47.1874 25.9579H103.812C105.117 25.9579 106.172 24.9032 106.172 23.5985C106.172 22.2938 105.117 21.2391 103.812 21.2391H47.1874C45.8827 21.2391 44.828 22.2938 44.828 23.5985C44.828 24.9032 45.8827 25.9579 47.1874 25.9579ZM63.703 28.3173C62.3983 28.3173 61.3437 29.3719 61.3437 30.6766C61.3437 31.9814 62.3983 33.036 63.703 33.036H87.2968C88.6015 33.036 89.6562 31.9814 89.6562 30.6766C89.6562 29.3719 88.6015 28.3173 87.2968 28.3173H63.703Z" fill="#7D49C3"/>
</g>
</g>
<defs>
<filter id="filter0_d_176_632" x="7.01562" y="-9.5" width="136.969" height="170" filterUnits="userSpaceOnUse" color-interpolation-filters="sRGB">
<feFlood flood-opacity="0" result="BackgroundImageFix"/>
<feColorMatrix in="SourceAlpha" type="matrix" values="0 0 0 0 0 0 0 0 0 0 0 0 0 0 0 0 0 0 127 0" result="hardAlpha"/>
<feOffset/>
<feGaussianBlur stdDeviation="4.75"/>
<feComposite in2="hardAlpha" operator="out"/>
<feColorMatrix type="matrix" values="0 0 0 0 0.490196 0 0 0 0 0.286275 0 0 0 0 0.764706 0 0 0 1 0"/>
<feBlend mode="normal" in2="BackgroundImageFix" result="effect1_dropShadow_176_632"/>
<feBlend mode="normal" in="SourceGraphic" in2="effect1_dropShadow_176_632" result="shape"/>
</filter>
<filter id="filter1_d_176_632" x="30.6094" y="40.054" width="89.7812" height="89.7836" filterUnits="userSpaceOnUse" color-interpolation-filters="sRGB">
<feFlood flood-opacity="0" result="BackgroundImageFix"/>
<feColorMatrix in="SourceAlpha" type="matrix" values="0 0 0 0 0 0 0 0 0 0 0 0 0 0 0 0 0 0 127 0" result="hardAlpha"/>
<feOffset/>
<feGaussianBlur stdDeviation="4.75"/>
<feComposite in2="hardAlpha" operator="out"/>
<feColorMatrix type="matrix" values="0 0 0 0 0.490196 0 0 0 0 0.286275 0 0 0 0 0.764706 0 0 0 1 0"/>
<feBlend mode="normal" in2="BackgroundImageFix" result="effect1_dropShadow_176_632"/>
<feBlend mode="normal" in="SourceGraphic" in2="effect1_dropShadow_176_632" result="shape"/>
</filter>
<filter id="filter2_d_176_632" x="49.9866" y="58.9325" width="51.0266" height="49.6707" filterUnits="userSpaceOnUse" color-interpolation-filters="sRGB">
<feFlood flood-opacity="0" result="BackgroundImageFix"/>
<feColorMatrix in="SourceAlpha" type="matrix" values="0 0 0 0 0 0 0 0 0 0 0 0 0 0 0 0 0 0 127 0" result="hardAlpha"/>
<feOffset/>
<feGaussianBlur stdDeviation="4.75"/>
<feComposite in2="hardAlpha" operator="out"/>
<feColorMatrix type="matrix" values="0 0 0 0 0.490196 0 0 0 0 0.286275 0 0 0 0 0.764706 0 0 0 1 0"/>
<feBlend mode="normal" in2="BackgroundImageFix" result="effect1_dropShadow_176_632"/>
<feBlend mode="normal" in="SourceGraphic" in2="effect1_dropShadow_176_632" result="shape"/>
</filter>
<filter id="filter3_d_176_632" x="21.1694" y="11.7391" width="108.659" height="127.538" filterUnits="userSpaceOnUse" color-interpolation-filters="sRGB">
<feFlood flood-opacity="0" result="BackgroundImageFix"/>
<feColorMatrix in="SourceAlpha" type="matrix" values="0 0 0 0 0 0 0 0 0 0 0 0 0 0 0 0 0 0 127 0" result="hardAlpha"/>
<feOffset/>
<feGaussianBlur stdDeviation="4.75"/>
<feComposite in2="hardAlpha" operator="out"/>
<feColorMatrix type="matrix" values="0 0 0 0 0.490196 0 0 0 0 0.286275 0 0 0 0 0.764706 0 0 0 1 0"/>
<feBlend mode="normal" in2="BackgroundImageFix" result="effect1_dropShadow_176_632"/>
<feBlend mode="normal" in="SourceGraphic" in2="effect1_dropShadow_176_632" result="shape"/>
</filter>
<clipPath id="clip0_176_632">
<rect width="151" height="151" fill="white"/>
</clipPath>
</defs>
</svg>
