<svg width="48" height="48" viewBox="0 0 48 48" fill="none" xmlns="http://www.w3.org/2000/svg">
<path d="M18.047 15.1219L17.5688 14.3156C18.0563 14.025 18.8438 13.6875 19.8657 13.6875C19.8751 13.6875 19.8845 13.6875 19.8938 13.6875C20.9063 13.6969 21.6845 14.0344 22.172 14.3156L21.6938 15.1219C21.3095 14.8969 20.6907 14.625 19.8938 14.625C19.0782 14.625 18.4407 14.8969 18.047 15.1219Z" fill="url(#paint0_linear_176_399)"/>
<path d="M20.0625 16.9688H19.125V18.6562H20.0625V16.9688Z" fill="url(#paint1_linear_176_399)"/>
<path d="M20.625 16.9688H19.6875V18.6562H20.625V16.9688Z" fill="url(#paint2_linear_176_399)"/>
<path d="M21.4031 17.9531C21.3094 17.9156 21.2156 17.8688 21.1031 17.8125C20.8125 17.6531 20.4 17.4375 19.875 17.4375C19.3875 17.4375 18.8906 17.6063 18.45 17.9156L17.9062 17.1469C18.5063 16.725 19.1813 16.5 19.8563 16.5C19.8656 16.5 19.8656 16.5 19.875 16.5C20.6344 16.5 21.1969 16.8 21.5344 16.9781C21.6 17.0156 21.6844 17.0531 21.7125 17.0625L21.4031 17.9531ZM29.9531 15.1219C29.5688 14.8969 28.9406 14.625 28.125 14.625C28.1156 14.625 28.1062 14.625 28.1062 14.625C27.3094 14.625 26.6813 14.8969 26.3063 15.1219L25.8281 14.3156C26.3062 14.0344 27.0937 13.6875 28.1062 13.6875C28.1156 13.6875 28.125 13.6875 28.1344 13.6875C29.1563 13.6875 29.9438 14.025 30.4313 14.3156L29.9531 15.1219Z" fill="url(#paint3_linear_176_399)"/>
<path d="M28.875 16.9688H27.9375V18.6562H28.875V16.9688Z" fill="url(#paint4_linear_176_399)"/>
<path d="M28.3125 16.9688H27.375V18.6562H28.3125V16.9688Z" fill="url(#paint5_linear_176_399)"/>
<path d="M26.5968 17.9531L26.2781 17.0719C26.3062 17.0625 26.3906 17.0156 26.4562 16.9875C26.7937 16.8094 27.3656 16.5 28.1343 16.5094C28.8187 16.5094 29.4937 16.7344 30.0843 17.1562L29.5406 17.925C29.1 17.6156 28.6125 17.4469 28.1156 17.4469H28.1062C27.5812 17.4469 27.1875 17.6625 26.8968 17.8219C26.7843 17.8687 26.6906 17.9156 26.5968 17.9531Z" fill="url(#paint6_linear_176_399)"/>
<path d="M25.5 29.3438H22.5C22.425 29.3438 22.3406 29.325 22.275 29.2875C22.1156 29.1937 18.2531 27.0375 16.9593 25.1719C15.0562 22.425 14.6437 16.2281 14.625 15.9656C14.6156 15.8344 14.6625 15.7125 14.7468 15.6188C14.8312 15.525 14.9625 15.4688 15.0843 15.4688C16.0031 15.4688 16.9781 12.3375 17.3343 10.0781C17.3531 9.975 17.4 9.88125 17.475 9.80625C17.5687 9.72187 19.7906 7.6875 22.8093 7.6875C24.7968 7.6875 26.2406 8.82188 27.075 9.75V9.375C27.075 9.17813 27.1968 9.00938 27.375 8.93438C27.5531 8.86875 27.7593 8.91562 27.8906 9.06562L29.4 10.7719L29.7843 10.2094C29.8875 10.05 30.0843 9.975 30.2718 10.0125C30.4593 10.05 30.6 10.2 30.6375 10.3875C31.1062 12.8438 32.1187 15.4781 32.8968 15.4781C33.0281 15.4781 33.15 15.5344 33.2343 15.6281C33.3187 15.7219 33.3656 15.8437 33.3656 15.975C33.3468 16.2375 32.9625 22.4625 31.0312 25.1906C29.8593 26.8406 25.9031 29.1937 25.7343 29.2875C25.6687 29.325 25.5843 29.3438 25.5 29.3438ZM22.6218 28.4062H25.3687C26.0156 28.0219 29.3156 25.9781 30.2718 24.6375C31.7906 22.5 32.2875 17.7188 32.4093 16.3125C31.6875 16.0125 31.05 15.0375 30.4781 13.3594C30.2625 12.7406 30.0937 12.1312 29.9718 11.6344L29.8593 11.8031C29.775 11.925 29.6437 12 29.5031 12.0094C29.3625 12.0188 29.2218 11.9625 29.1187 11.85L28.0312 10.6125V11.1562C28.0312 11.3719 27.8906 11.5594 27.6843 11.6063C27.4781 11.6625 27.2625 11.5688 27.1593 11.3813C27.1406 11.3531 25.575 8.625 22.8281 8.625C20.5312 8.625 18.7125 10.0031 18.2437 10.3875C18.1687 10.8188 17.9531 11.9906 17.5781 13.1813C17.0156 14.9719 16.3687 16.0031 15.6 16.3125C15.7218 17.7281 16.2468 22.4906 17.7375 24.6375C18.7875 26.1656 22.0031 28.05 22.6218 28.4062Z" fill="url(#paint7_linear_176_399)"/>
<path d="M24.0094 25.2188C22.05 25.2188 21.2531 24 21.1031 23.3531C21.075 23.2125 21.1031 23.0719 21.1969 22.9594C21.2813 22.8469 21.4219 22.7812 21.5625 22.7812H26.4375C26.5781 22.7812 26.7094 22.8469 26.8031 22.9594C26.8875 23.0719 26.925 23.2125 26.8969 23.3531C26.7562 24 25.9688 25.2188 24.0094 25.2188ZM22.3781 23.7188C22.6594 24 23.1563 24.2812 24.0094 24.2812C24.8625 24.2812 25.35 24 25.6312 23.7188H22.3781ZM15.0938 23.25H13.2188C12.9562 23.25 12.75 23.0437 12.75 22.7812V22.2L11.4562 21.8344C10.4531 21.5531 9.75 20.625 9.75 19.575V17.3531C9.75 16.3031 10.4531 15.3844 11.4562 15.0938L12.75 14.7281V14.1562C12.75 13.8938 12.9562 13.6875 13.2188 13.6875H15.0938C15.3562 13.6875 15.5625 13.8938 15.5625 14.1562V22.7812C15.5625 23.0437 15.3562 23.25 15.0938 23.25ZM13.6875 22.3125H14.625V14.625H13.6875V15.0938C13.6875 15.3 13.5469 15.4875 13.35 15.5438L11.7188 16.0031C11.1187 16.1719 10.6969 16.725 10.6969 17.3531V19.575C10.6969 20.2031 11.1187 20.7562 11.7188 20.925L12.7594 21.2156V16.9688H13.6969V22.3125H13.6875ZM34.7812 23.25H32.9062C32.6437 23.25 32.4375 23.0437 32.4375 22.7812V14.1562C32.4375 13.8938 32.6437 13.6875 32.9062 13.6875H34.7812C35.0438 13.6875 35.25 13.8938 35.25 14.1562V22.7812C35.25 23.0437 35.0438 23.25 34.7812 23.25ZM33.375 22.3125H34.3125V14.625H33.375V22.3125Z" fill="url(#paint8_linear_176_399)"/>
<path d="M34.7813 22.3125C34.6782 22.3125 34.5844 22.2844 34.5 22.2188C34.3876 22.1344 34.3125 21.9937 34.3125 21.8438V15.0938C34.3125 14.9438 34.3782 14.8125 34.5 14.7188C34.6125 14.6344 34.7719 14.5969 34.9125 14.6437L36.5438 15.1031C37.5469 15.3844 38.25 16.3125 38.25 17.3625V19.5844C38.25 20.6344 37.5469 21.5531 36.5438 21.8438L34.9125 22.3031C34.8657 22.3031 34.8282 22.3125 34.7813 22.3125ZM35.25 15.7125V21.225L36.2907 20.9344C36.8907 20.7656 37.3125 20.2125 37.3125 19.5844V17.3625C37.3125 16.7344 36.8907 16.1812 36.2907 16.0125L35.25 15.7125ZM29.4375 5.19375C29.4282 5.19375 29.4188 5.19375 29.4094 5.19375C29.2782 5.18438 29.1563 5.12812 29.0719 5.025C27.8625 3.53437 26.2032 2.8125 24 2.8125C21.7969 2.8125 20.1375 3.53437 18.9282 5.01562C18.8438 5.11875 18.7219 5.18437 18.5907 5.18437C18.4594 5.19375 18.3282 5.14688 18.2344 5.05313L16.8844 3.74063C16.7063 3.57188 16.6969 3.29062 16.8563 3.10312C18.6 1.05 21.0094 0 24 0C27 0 29.4094 1.05 31.1532 3.1125C31.3125 3.3 31.2938 3.58125 31.125 3.75L29.7751 5.0625C29.6813 5.14687 29.5594 5.19375 29.4375 5.19375ZM24 1.875C26.3063 1.875 28.1063 2.5875 29.4657 4.05L30.1407 3.39375C28.6125 1.7625 26.55 0.9375 24 0.9375C21.4594 0.9375 19.3969 1.7625 17.8594 3.38437L18.5344 4.04062C19.9032 2.5875 21.6938 1.875 24 1.875Z" fill="url(#paint9_linear_176_399)"/>
<path d="M13.6969 14.5125C13.4719 13.0968 13.2188 10.9687 13.6688 8.9062C14.1844 6.55308 15.5063 4.77183 17.5875 3.59058L18.0469 4.4062C13.9125 6.74058 14.1094 11.2125 14.625 14.3625L13.6969 14.5125ZM34.3031 14.5125L33.375 14.3625C33.8813 11.2031 34.0875 6.74058 29.9531 4.4062L30.4125 3.59058C32.4938 4.77183 33.8156 6.56245 34.3313 8.9062C34.7906 10.9687 34.5375 13.0968 34.3031 14.5125ZM22.875 31.4062C18.1406 31.4062 15.8906 29.0531 14.8313 27.0843C13.6969 24.9656 13.6875 22.8656 13.6875 22.7812H14.625C14.625 22.8 14.6438 24.7593 15.675 26.6718C17.0344 29.1937 19.4625 30.4687 22.875 30.4687V31.4062Z" fill="url(#paint10_linear_176_399)"/>
<path d="M25.125 33.2812H22.875C22.6125 33.2812 22.4062 33.075 22.4062 32.8125V30.9375C22.4062 30.675 22.6125 30.4688 22.875 30.4688H25.125C25.3875 30.4688 25.5938 30.675 25.5938 30.9375V32.8125C25.5938 33.075 25.3875 33.2812 25.125 33.2812ZM23.3438 32.3438H24.6562V31.4062H23.3438V32.3438Z" fill="url(#paint11_linear_176_399)"/>
<path d="M24 35.7188C21.7969 35.7188 20.5875 34.5 19.9594 33.4782C19.2937 32.4 19.1344 31.3219 19.125 31.275L20.0531 31.1438L19.5844 31.2094L20.0438 31.1438C20.0625 31.2938 20.6156 34.7813 23.9906 34.7813C27.3656 34.7813 27.9094 31.2938 27.9281 31.1438L28.8562 31.275C28.8469 31.3219 28.6969 32.3907 28.0312 33.4782C27.4125 34.5 26.2031 35.7188 24 35.7188Z" fill="url(#paint12_linear_176_399)"/>
<path d="M18.1875 40.0312H17.25V40.9688H18.1875V40.0312Z" fill="url(#paint13_linear_176_399)"/>
<path d="M20.0625 40.0312H19.125V40.9688H20.0625V40.0312Z" fill="url(#paint14_linear_176_399)"/>
<path d="M19.125 39.0938H18.1875V40.0312H19.125V39.0938Z" fill="url(#paint15_linear_176_399)"/>
<path d="M19.125 40.9688H18.1875V41.9062H19.125V40.9688Z" fill="url(#paint16_linear_176_399)"/>
<path d="M21.1218 43.6687C20.6062 43.6687 20.1843 43.2468 20.1843 42.7312C20.1843 42.2156 20.6062 41.7937 21.1218 41.7937C21.6375 41.7937 22.0593 42.2156 22.0593 42.7312C22.0593 43.2468 21.6375 43.6687 21.1218 43.6687Z" fill="url(#paint17_linear_176_399)"/>
<path d="M31.5938 48C30.1032 48 28.7907 47.0438 28.3407 45.6188L28.1438 45C27.5813 45.2625 26.6719 45.5062 25.7063 44.9906C24.6563 44.4281 24.3657 43.4437 24.2907 42.8438H23.7282C23.6532 43.4437 23.3625 44.4375 22.3125 44.9906C21.3469 45.5062 20.4375 45.2625 19.875 45L19.6782 45.6188C19.2282 47.0438 17.9157 48 16.425 48C15.6 48 14.925 47.325 14.925 46.5C14.925 46.3687 14.9438 46.2281 14.9813 46.0969L15.8813 42.8438C15.75 42.4219 15.3938 41.1938 15.3938 40.4625C15.3938 38.2031 16.8094 36.75 19.0032 36.75C20.0157 36.75 21.2344 37.3125 21.6 37.5H26.4375C26.8032 37.3125 28.0219 36.75 29.0344 36.75C31.2282 36.75 32.6438 38.2125 32.6438 40.4625C32.6438 41.1938 32.2875 42.4219 32.1563 42.8438L32.9063 45.525L32.0063 45.7781L31.2282 42.9563C31.2001 42.8719 31.2094 42.7781 31.2376 42.6844C31.3688 42.2625 31.725 41.0531 31.725 40.4531C31.725 38.7094 30.7219 37.6781 29.0532 37.6781C28.2657 37.6781 27.15 38.1844 26.7938 38.3719C26.7282 38.4094 26.6532 38.4281 26.5688 38.4281H21.5063C21.4313 38.4281 21.3563 38.4094 21.2813 38.3719C21.2719 38.3625 19.9594 37.6781 19.0219 37.6781C17.3532 37.6781 16.35 38.7188 16.35 40.4531C16.35 41.0437 16.6969 42.2625 16.8375 42.6844C16.8657 42.7687 16.8657 42.8625 16.8469 42.9563L15.9094 46.3406C15.9 46.3875 15.8907 46.4437 15.8907 46.4906C15.8907 46.8 16.1438 47.0531 16.4532 47.0531C17.5407 47.0531 18.4875 46.3594 18.8157 45.3281L19.1907 44.1469C19.2375 43.9969 19.35 43.8844 19.5 43.8375C19.65 43.7906 19.8094 43.8281 19.9313 43.9219C19.9688 43.95 20.9157 44.6813 21.9 44.1562C22.9032 43.6219 22.8469 42.45 22.8469 42.3938C22.8375 42.2625 22.8844 42.1406 22.9782 42.0469C23.0625 41.9531 23.1938 41.8969 23.3157 41.8969H24.7688C24.9001 41.8969 25.0219 41.9531 25.1157 42.0469C25.2094 42.1406 25.2469 42.2719 25.2376 42.3938C25.2376 42.4406 25.1813 43.6219 26.1844 44.1469C27.1782 44.6719 28.1157 43.9406 28.1532 43.9125C28.275 43.8187 28.4344 43.7906 28.5844 43.8281C28.7344 43.875 28.8469 43.9875 28.8938 44.1375L29.2688 45.3187C29.5969 46.35 30.5532 47.0437 31.6313 47.0437V48H31.5938Z" fill="url(#paint18_linear_176_399)"/>
<path d="M30.75 40.0312H29.8125V40.9688H30.75V40.0312Z" fill="url(#paint19_linear_176_399)"/>
<path d="M28.875 40.0312H27.9375V40.9688H28.875V40.0312Z" fill="url(#paint20_linear_176_399)"/>
<path d="M29.8125 39.0938H28.875V40.0312H29.8125V39.0938Z" fill="url(#paint21_linear_176_399)"/>
<path d="M29.8125 40.9688H28.875V41.9062H29.8125V40.9688Z" fill="url(#paint22_linear_176_399)"/>
<path d="M25.875 40.5H22.125C21.9188 40.5 21.7407 40.3688 21.675 40.1719L21.0188 38.1094L21.9094 37.8281L22.4625 39.5625H25.5282L26.0907 37.8281L26.9813 38.1188L26.3157 40.1813C26.2594 40.3688 26.0813 40.5 25.875 40.5ZM26.8875 43.6687C26.3719 43.6687 25.95 43.2469 25.95 42.7312C25.95 42.2156 26.3719 41.7937 26.8875 41.7937C27.4032 41.7937 27.825 42.2156 27.825 42.7312C27.825 43.2469 27.4032 43.6687 26.8875 43.6687Z" fill="url(#paint23_linear_176_399)"/>
<path d="M39.2812 48H8.71875C8.45625 48 8.25 47.7937 8.25 47.5312V39.8625C8.25 37.5 9.62813 35.3343 11.7656 34.3406L20.7188 30.1687V28.1062H21.6562V30.4687C21.6562 30.6468 21.5531 30.8156 21.3844 30.8906L12.1594 35.1843C10.35 36.0281 9.17813 37.8656 9.17813 39.8531V47.0625H38.8031V39.8625C38.8031 37.8656 37.6313 36.0281 35.8219 35.1937L26.5969 30.9C26.4281 30.825 26.325 30.6562 26.325 30.4781V28.0593H27.2625V30.1781L36.2156 34.35C38.3531 35.3437 39.7312 37.5187 39.7312 39.8718V47.5312C39.75 47.7937 39.5438 48 39.2812 48Z" fill="url(#paint24_linear_176_399)"/>
<defs>
<linearGradient id="paint0_linear_176_399" x1="17.5688" y1="14.4047" x2="22.172" y2="14.4047" gradientUnits="userSpaceOnUse">
<stop stop-color="#5B20FF"/>
<stop offset="1" stop-color="#8603D8"/>
</linearGradient>
<linearGradient id="paint1_linear_176_399" x1="19.125" y1="17.8125" x2="20.0625" y2="17.8125" gradientUnits="userSpaceOnUse">
<stop stop-color="#5B20FF"/>
<stop offset="1" stop-color="#8603D8"/>
</linearGradient>
<linearGradient id="paint2_linear_176_399" x1="19.6875" y1="17.8125" x2="20.625" y2="17.8125" gradientUnits="userSpaceOnUse">
<stop stop-color="#5B20FF"/>
<stop offset="1" stop-color="#8603D8"/>
</linearGradient>
<linearGradient id="paint3_linear_176_399" x1="17.9062" y1="15.8203" x2="30.4313" y2="15.8203" gradientUnits="userSpaceOnUse">
<stop stop-color="#5B20FF"/>
<stop offset="1" stop-color="#8603D8"/>
</linearGradient>
<linearGradient id="paint4_linear_176_399" x1="27.9375" y1="17.8125" x2="28.875" y2="17.8125" gradientUnits="userSpaceOnUse">
<stop stop-color="#5B20FF"/>
<stop offset="1" stop-color="#8603D8"/>
</linearGradient>
<linearGradient id="paint5_linear_176_399" x1="27.375" y1="17.8125" x2="28.3125" y2="17.8125" gradientUnits="userSpaceOnUse">
<stop stop-color="#5B20FF"/>
<stop offset="1" stop-color="#8603D8"/>
</linearGradient>
<linearGradient id="paint6_linear_176_399" x1="26.2781" y1="17.2311" x2="30.0843" y2="17.2311" gradientUnits="userSpaceOnUse">
<stop stop-color="#5B20FF"/>
<stop offset="1" stop-color="#8603D8"/>
</linearGradient>
<linearGradient id="paint7_linear_176_399" x1="14.6238" y1="18.5156" x2="33.3656" y2="18.5156" gradientUnits="userSpaceOnUse">
<stop stop-color="#5B20FF"/>
<stop offset="1" stop-color="#8603D8"/>
</linearGradient>
<linearGradient id="paint8_linear_176_399" x1="9.75" y1="19.4531" x2="35.25" y2="19.4531" gradientUnits="userSpaceOnUse">
<stop stop-color="#5B20FF"/>
<stop offset="1" stop-color="#8603D8"/>
</linearGradient>
<linearGradient id="paint9_linear_176_399" x1="16.7434" y1="11.1562" x2="38.25" y2="11.1562" gradientUnits="userSpaceOnUse">
<stop stop-color="#5B20FF"/>
<stop offset="1" stop-color="#8603D8"/>
</linearGradient>
<linearGradient id="paint10_linear_176_399" x1="13.4194" y1="17.4984" x2="34.5874" y2="17.4984" gradientUnits="userSpaceOnUse">
<stop stop-color="#5B20FF"/>
<stop offset="1" stop-color="#8603D8"/>
</linearGradient>
<linearGradient id="paint11_linear_176_399" x1="22.4062" y1="31.875" x2="25.5938" y2="31.875" gradientUnits="userSpaceOnUse">
<stop stop-color="#5B20FF"/>
<stop offset="1" stop-color="#8603D8"/>
</linearGradient>
<linearGradient id="paint12_linear_176_399" x1="19.125" y1="33.4313" x2="28.8562" y2="33.4313" gradientUnits="userSpaceOnUse">
<stop stop-color="#5B20FF"/>
<stop offset="1" stop-color="#8603D8"/>
</linearGradient>
<linearGradient id="paint13_linear_176_399" x1="17.25" y1="40.5" x2="18.1875" y2="40.5" gradientUnits="userSpaceOnUse">
<stop stop-color="#5B20FF"/>
<stop offset="1" stop-color="#8603D8"/>
</linearGradient>
<linearGradient id="paint14_linear_176_399" x1="19.125" y1="40.5" x2="20.0625" y2="40.5" gradientUnits="userSpaceOnUse">
<stop stop-color="#5B20FF"/>
<stop offset="1" stop-color="#8603D8"/>
</linearGradient>
<linearGradient id="paint15_linear_176_399" x1="18.1875" y1="39.5625" x2="19.125" y2="39.5625" gradientUnits="userSpaceOnUse">
<stop stop-color="#5B20FF"/>
<stop offset="1" stop-color="#8603D8"/>
</linearGradient>
<linearGradient id="paint16_linear_176_399" x1="18.1875" y1="41.4375" x2="19.125" y2="41.4375" gradientUnits="userSpaceOnUse">
<stop stop-color="#5B20FF"/>
<stop offset="1" stop-color="#8603D8"/>
</linearGradient>
<linearGradient id="paint17_linear_176_399" x1="20.1843" y1="42.7312" x2="22.0593" y2="42.7312" gradientUnits="userSpaceOnUse">
<stop stop-color="#5B20FF"/>
<stop offset="1" stop-color="#8603D8"/>
</linearGradient>
<linearGradient id="paint18_linear_176_399" x1="14.925" y1="42.375" x2="32.9063" y2="42.375" gradientUnits="userSpaceOnUse">
<stop stop-color="#5B20FF"/>
<stop offset="1" stop-color="#8603D8"/>
</linearGradient>
<linearGradient id="paint19_linear_176_399" x1="29.8125" y1="40.5" x2="30.75" y2="40.5" gradientUnits="userSpaceOnUse">
<stop stop-color="#5B20FF"/>
<stop offset="1" stop-color="#8603D8"/>
</linearGradient>
<linearGradient id="paint20_linear_176_399" x1="27.9375" y1="40.5" x2="28.875" y2="40.5" gradientUnits="userSpaceOnUse">
<stop stop-color="#5B20FF"/>
<stop offset="1" stop-color="#8603D8"/>
</linearGradient>
<linearGradient id="paint21_linear_176_399" x1="28.875" y1="39.5625" x2="29.8125" y2="39.5625" gradientUnits="userSpaceOnUse">
<stop stop-color="#5B20FF"/>
<stop offset="1" stop-color="#8603D8"/>
</linearGradient>
<linearGradient id="paint22_linear_176_399" x1="28.875" y1="41.4375" x2="29.8125" y2="41.4375" gradientUnits="userSpaceOnUse">
<stop stop-color="#5B20FF"/>
<stop offset="1" stop-color="#8603D8"/>
</linearGradient>
<linearGradient id="paint23_linear_176_399" x1="21.0188" y1="40.7484" x2="27.825" y2="40.7484" gradientUnits="userSpaceOnUse">
<stop stop-color="#5B20FF"/>
<stop offset="1" stop-color="#8603D8"/>
</linearGradient>
<linearGradient id="paint24_linear_176_399" x1="8.25" y1="38.0296" x2="39.7324" y2="38.0296" gradientUnits="userSpaceOnUse">
<stop stop-color="#5B20FF"/>
<stop offset="1" stop-color="#8603D8"/>
</linearGradient>
</defs>
</svg>
