<svg width="40" height="40" viewBox="0 0 40 40" fill="none" xmlns="http://www.w3.org/2000/svg">
<path d="M10.5556 32.2222C10.4277 32.2212 10.304 32.1761 10.2056 32.0944C7.70416 30.0712 5.89163 27.3221 5.01763 24.2259C4.14362 21.1296 4.25114 17.8386 5.32537 14.806C6.3996 11.7734 8.3877 9.1485 11.0158 7.29283C13.6439 5.43715 16.7828 4.442 20 4.44444C22.379 4.43739 24.7274 4.98122 26.8611 6.03333C26.9929 6.09895 27.0933 6.21422 27.1402 6.35381C27.1871 6.4934 27.1766 6.64589 27.1111 6.77777C27.0791 6.84353 27.0344 6.90232 26.9797 6.95077C26.9249 6.99922 26.8611 7.03638 26.792 7.06013C26.7228 7.08387 26.6496 7.09372 26.5766 7.08912C26.5037 7.08453 26.4323 7.06557 26.3667 7.03333C23.1304 5.4441 19.4167 5.12265 15.9555 6.13213C12.4942 7.14162 9.53566 9.40906 7.66111 12.4889C5.84285 15.4771 5.17069 19.0235 5.76941 22.4698C6.36814 25.916 8.19709 29.028 10.9167 31.2278C10.9733 31.274 11.0203 31.331 11.0549 31.3954C11.0895 31.4599 11.111 31.5305 11.1182 31.6033C11.1255 31.6761 11.1182 31.7496 11.097 31.8195C11.0758 31.8895 11.0409 31.9546 10.9944 32.0111C10.9421 32.0773 10.8754 32.1307 10.7994 32.1673C10.7233 32.2039 10.6399 32.2227 10.5556 32.2222ZM20 35.5556C17.5178 35.5623 15.0707 34.9696 12.8667 33.8278C12.7355 33.76 12.6367 33.6429 12.5919 33.5023C12.5471 33.3616 12.56 33.2089 12.6278 33.0778C12.6956 32.9466 12.8127 32.8478 12.9533 32.803C13.094 32.7582 13.2466 32.7711 13.3778 32.8389C16.1774 34.284 19.3727 34.7741 22.4768 34.2345C25.5808 33.695 28.4233 32.1553 30.5711 29.8502C32.7188 27.5452 34.054 24.6011 34.3732 21.4667C34.6923 18.3323 33.978 15.1795 32.3389 12.4889C31.4757 11.0768 30.3786 9.82183 29.0944 8.77778C28.9808 8.68531 28.9083 8.55171 28.8927 8.40604C28.8771 8.26037 28.9196 8.11444 29.0111 8C29.057 7.94293 29.1136 7.89548 29.1779 7.86038C29.2421 7.82529 29.3127 7.80323 29.3855 7.79549C29.4582 7.78774 29.5319 7.79446 29.602 7.81526C29.6722 7.83605 29.7376 7.87052 29.7944 7.91666C31.1759 9.04027 32.3557 10.3911 33.2833 11.9111C34.719 14.2694 35.5012 16.9673 35.5495 19.7278C35.5978 22.4883 34.9105 25.2119 33.5582 27.619C32.2059 30.0261 30.2374 32.0299 27.8547 33.4247C25.4719 34.8194 22.7609 35.5549 20 35.5556Z" fill="white"/>
<path d="M19.4445 35C19.3068 34.9996 19.1742 34.9482 19.0723 34.8556C16.9857 32.9845 15.3957 30.6252 14.4445 27.9889C13.3895 25.4551 12.8239 22.7443 12.7778 20C12.7839 17.2496 13.3511 14.5293 14.4445 12.0056C15.4875 9.41854 17.0644 7.08061 19.0723 5.14444C19.1827 5.05575 19.3229 5.01259 19.4641 5.0238C19.6053 5.03501 19.7369 5.09973 19.832 5.20474C19.927 5.30974 19.9784 5.4471 19.9756 5.58873C19.9727 5.73035 19.9159 5.86555 19.8167 5.96666C17.9194 7.79291 16.4278 9.99814 15.4389 12.4389C14.4153 14.8282 13.888 17.4006 13.8889 20C13.9246 22.5979 14.4524 25.1654 15.4445 27.5667C16.3425 30.0517 17.8451 32.2741 19.8167 34.0333C19.8996 34.1087 19.9578 34.2073 19.9836 34.3163C20.0095 34.4253 20.0018 34.5395 19.9615 34.6441C19.9212 34.7486 19.8503 34.8385 19.7581 34.902C19.6658 34.9656 19.5565 34.9997 19.4445 35Z" fill="white"/>
<path d="M20.5555 35C20.4435 34.9997 20.3342 34.9656 20.2419 34.902C20.1497 34.8385 20.0788 34.7486 20.0385 34.6441C19.9983 34.5395 19.9905 34.4253 20.0164 34.3163C20.0422 34.2073 20.1004 34.1087 20.1833 34.0333C22.1549 32.2741 23.6575 30.0517 24.5555 27.5667C25.5476 25.1654 26.0754 22.5979 26.1111 20C26.112 17.4006 25.5847 14.8282 24.5611 12.4389C23.5722 9.99814 22.0806 7.79291 20.1833 5.96666C20.1242 5.91925 20.0755 5.86026 20.0401 5.79333C20.0047 5.7264 19.9833 5.65293 19.9773 5.57745C19.9713 5.50196 19.9808 5.42604 20.0053 5.35436C20.0297 5.28268 20.0685 5.21675 20.1193 5.16062C20.1701 5.10448 20.2319 5.05933 20.3008 5.02793C20.3697 4.99654 20.4443 4.97956 20.52 4.97805C20.5957 4.97653 20.671 4.99051 20.7411 5.01912C20.8112 5.04774 20.8747 5.09038 20.9277 5.14444C22.9456 7.07793 24.5322 9.41605 25.5833 12.0056C26.6672 14.5313 27.2248 17.2515 27.2222 20C27.1761 22.7443 26.6105 25.4551 25.5555 27.9889C24.598 30.6275 23.0002 32.987 20.9055 34.8556C20.8094 34.9432 20.6855 34.9943 20.5555 35Z" fill="white"/>
<path d="M35 20.5556H5.00001C4.85267 20.5556 4.71136 20.497 4.60718 20.3928C4.50299 20.2886 4.44446 20.1473 4.44446 20C4.44446 19.8527 4.50299 19.7113 4.60718 19.6072C4.71136 19.503 4.85267 19.4444 5.00001 19.4444H35C35.1474 19.4444 35.2887 19.503 35.3929 19.6072C35.497 19.7113 35.5556 19.8527 35.5556 20C35.5556 20.1473 35.497 20.2886 35.3929 20.3928C35.2887 20.497 35.1474 20.5556 35 20.5556ZM32.7778 12.7778H7.22224C7.07489 12.7778 6.93359 12.7192 6.8294 12.6151C6.72521 12.5109 6.66668 12.3696 6.66668 12.2222C6.66668 12.0749 6.72521 11.9336 6.8294 11.8294C6.93359 11.7252 7.07489 11.6667 7.22224 11.6667H32.7778C32.9251 11.6667 33.0664 11.7252 33.1706 11.8294C33.2748 11.9336 33.3333 12.0749 33.3333 12.2222C33.3333 12.3696 33.2748 12.5109 33.1706 12.6151C33.0664 12.7192 32.9251 12.7778 32.7778 12.7778ZM32.7778 28.3333H7.22224C7.07489 28.3333 6.93359 28.2748 6.8294 28.1706C6.72521 28.0664 6.66668 27.9251 6.66668 27.7778C6.66668 27.6304 6.72521 27.4891 6.8294 27.3849C6.93359 27.2807 7.07489 27.2222 7.22224 27.2222H32.7778C32.9251 27.2222 33.0664 27.2807 33.1706 27.3849C33.2748 27.4891 33.3333 27.6304 33.3333 27.7778C33.3333 27.9251 33.2748 28.0664 33.1706 28.1706C33.0664 28.2748 32.9251 28.3333 32.7778 28.3333Z" fill="white"/>
<path d="M20 35C19.8527 35 19.7114 34.9415 19.6072 34.8373C19.503 34.7331 19.4445 34.5918 19.4445 34.4444V5.55556C19.4445 5.40821 19.503 5.26691 19.6072 5.16272C19.7114 5.05853 19.8527 5 20 5C20.1474 5 20.2887 5.05853 20.3929 5.16272C20.497 5.26691 20.5556 5.40821 20.5556 5.55556V34.4444C20.5556 34.5918 20.497 34.7331 20.3929 34.8373C20.2887 34.9415 20.1474 35 20 35Z" fill="white"/>
</svg>
