<svg width="40" height="40" viewBox="0 0 40 40" fill="none" xmlns="http://www.w3.org/2000/svg">
<path fill-rule="evenodd" clip-rule="evenodd" d="M19.9449 7.5C15.8062 7.5 12.4449 10.8612 12.4449 15C12.4449 19.1388 15.8062 22.5 19.9449 22.5C24.0849 22.5 27.4449 19.1388 27.4449 15C27.4449 10.8612 24.0849 7.5 19.9449 7.5ZM19.9449 10C22.7049 10 24.9449 12.24 24.9449 15C24.9449 17.76 22.7049 20 19.9449 20C17.1862 20 14.9449 17.76 14.9449 15C14.9449 12.24 17.1862 10 19.9449 10Z" fill="white"/>
<path fill-rule="evenodd" clip-rule="evenodd" d="M20 2.5C10.3412 2.5 2.5 10.3412 2.5 20C2.5 29.6588 10.3412 37.5 20 37.5C29.6588 37.5 37.5 29.6588 37.5 20C37.5 10.3412 29.6588 2.5 20 2.5ZM30.4625 30.745C28.2375 27.29 24.3563 25 19.945 25C15.5625 25 11.7038 27.2613 9.47125 30.68C12.18 33.35 15.8988 35 20 35C24.0675 35 27.7588 33.3775 30.4625 30.745ZM32.1537 28.7875C33.945 26.3175 35 23.2812 35 20C35 11.7212 28.2788 5 20 5C11.7212 5 5 11.7212 5 20C5 23.2475 6.035 26.2562 7.79125 28.7125C10.5175 24.9487 14.9475 22.5 19.945 22.5C24.9763 22.5 29.4325 24.9825 32.1537 28.7875Z" fill="white"/>
</svg>
