<svg width="151" height="151" viewBox="0 0 151 151" fill="none" xmlns="http://www.w3.org/2000/svg">
<g clip-path="url(#clip0_176_643)">
<g filter="url(#filter0_d_176_643)">
<path d="M128.591 11.9325C127.768 10.9648 126.744 10.1877 125.591 9.65502C124.438 9.12234 123.182 8.84685 121.912 8.84766H114.348C114.265 8.10386 114.175 7.38248 114.078 6.69119C113.805 4.83562 112.876 3.13943 111.459 1.91137C110.041 0.683315 108.23 0.00503582 106.355 0L44.6453 0C42.7699 0.00511687 40.9586 0.68347 39.5413 1.91158C38.124 3.13969 37.1947 4.83591 36.9227 6.69148C36.8254 7.38278 36.7352 8.10416 36.6523 8.84766H29.0881C27.8176 8.8479 26.5622 9.12401 25.4088 9.6569C24.2554 10.1898 23.2314 10.9668 22.4077 11.9341C21.5839 12.9015 20.9801 14.0361 20.6377 15.2597C20.2954 16.4833 20.2229 17.7666 20.4251 19.021L22.0826 29.2896C23.4942 38.0736 27.415 46.2623 33.3727 52.8696C39.3304 59.477 47.0711 64.2214 55.6627 66.5314C58.6431 69.7238 61.896 72.6503 65.3845 75.2779C64.145 75.9777 63.1347 77.0216 62.4758 78.2832C61.8168 79.5449 61.5373 80.9704 61.6712 82.3875C61.805 83.8045 62.3463 85.1525 63.2298 86.2685C64.1133 87.3846 65.3011 88.2208 66.6497 88.6762C66.316 91.9061 65.4733 95.0629 64.1529 98.0294C60.6011 105.978 54.4145 110.528 50.7316 112.66H49.8418C48.4734 112.662 47.1616 113.206 46.194 114.174C45.2265 115.141 44.6822 116.453 44.6806 117.821V136.254H40.9941C39.6258 136.255 38.3139 136.8 37.3464 137.767C36.3788 138.735 35.8345 140.047 35.833 141.415V145.839C35.8345 147.207 36.3788 148.519 37.3464 149.487C38.3139 150.454 39.6258 150.998 40.9941 151H110.006C111.374 150.998 112.686 150.454 113.654 149.487C114.621 148.519 115.165 147.207 115.167 145.839V141.415C115.165 140.047 114.621 138.735 113.654 137.767C112.686 136.8 111.374 136.255 110.006 136.254H106.319V117.821C106.318 116.453 105.773 115.141 104.806 114.174C103.838 113.206 102.527 112.662 101.158 112.66H100.268C96.5851 110.528 90.3988 105.978 86.8471 98.0291C85.5267 95.0627 84.684 91.906 84.3503 88.6762C85.6988 88.2208 86.8866 87.3846 87.7701 86.2685C88.6536 85.1525 89.195 83.8045 89.3288 82.3875C89.4626 80.9704 89.1832 79.5449 88.5242 78.2832C87.8652 77.0216 86.855 75.9777 85.6155 75.2779C89.104 72.6503 92.3569 69.7238 95.3373 66.5314C103.929 64.2214 111.669 59.4771 117.627 52.8699C123.585 46.2626 127.506 38.0741 128.917 29.2902L130.575 19.0204C130.778 17.7658 130.706 16.482 130.363 15.2581C130.021 14.0342 129.416 12.8995 128.591 11.9325ZM26.45 28.5853L24.7926 18.3167C24.6924 17.6947 24.7284 17.0584 24.8982 16.4517C25.0679 15.8449 25.3674 15.2823 25.7758 14.8026C26.1842 14.3229 26.6919 13.9375 27.2638 13.6732C27.8357 13.4089 28.4581 13.2718 29.0881 13.2715H36.2942C35.6829 24.6588 37.7624 36.0301 42.3643 46.4641C44.4563 51.1887 47.0546 55.6725 50.1137 59.8367C43.9121 56.9633 38.511 52.6108 34.385 47.1618C30.2589 41.7127 27.5341 35.3337 26.45 28.5853ZM110.006 140.678C110.201 140.678 110.389 140.756 110.527 140.894C110.665 141.032 110.743 141.22 110.743 141.415V145.839C110.743 146.034 110.665 146.222 110.527 146.36C110.389 146.498 110.201 146.576 110.006 146.576H40.9941C40.7986 146.576 40.6112 146.498 40.473 146.36C40.3348 146.222 40.257 146.034 40.2568 145.839V141.415C40.257 141.22 40.3348 141.032 40.473 140.894C40.6112 140.756 40.7986 140.678 40.9941 140.678H110.006ZM99.6747 117.084L99.6815 117.084L99.688 117.084H101.158C101.354 117.084 101.541 117.162 101.679 117.3C101.817 117.438 101.895 117.626 101.895 117.821V136.254H49.1045V117.821C49.1047 117.626 49.1825 117.438 49.3207 117.3C49.4589 117.162 49.6463 117.084 49.8418 117.084H51.312L51.3185 117.084L51.3252 117.084H99.6747ZM92.5984 112.66H58.4016C62.5979 109.185 65.9463 104.798 68.1921 99.834C69.7145 96.42 70.6832 92.7852 71.0617 89.0664H79.9383C80.3167 92.7852 81.2854 96.42 82.8078 99.834C85.0536 104.798 88.4021 109.185 92.5984 112.66ZM81.9883 84.6426H69.0117C68.2295 84.6426 67.4794 84.3319 66.9263 83.7788C66.3732 83.2257 66.0625 82.4755 66.0625 81.6934C66.0625 80.9112 66.3732 80.161 66.9263 79.6079C67.4794 79.0549 68.2295 78.7441 69.0117 78.7441H70.9729C71.0419 78.7471 71.111 78.7474 71.1794 78.7441H79.8583C79.8808 78.7447 79.9032 78.7483 79.9259 78.7483C79.9459 78.7483 79.966 78.7447 79.986 78.7441H81.9883C82.7704 78.7441 83.5206 79.0549 84.0737 79.6079C84.6268 80.161 84.9375 80.9112 84.9375 81.6934C84.9375 82.4755 84.6268 83.2257 84.0737 83.7788C83.5206 84.3319 82.7704 84.6426 81.9883 84.6426ZM79.2791 74.3203H71.7209C65.0774 69.9997 53.477 60.6495 46.4095 44.6745C39.905 29.9706 40.0421 16.2396 41.3029 7.30993C41.4219 6.5083 41.8247 5.77603 42.4381 5.24635C43.0514 4.71667 43.8345 4.4248 44.645 4.42383H106.355C107.165 4.42475 107.948 4.71661 108.562 5.24631C109.175 5.776 109.578 6.5083 109.696 7.30993C110.958 16.2396 111.095 29.9706 104.59 44.6745C97.5227 60.6495 85.9222 69.9994 79.2788 74.3203H79.2791ZM126.208 18.3158L124.55 28.5859C123.466 35.3342 120.741 41.7131 116.615 47.162C112.489 52.611 107.088 56.9633 100.886 59.8367C103.945 55.6725 106.544 51.1887 108.636 46.4641C113.238 36.0301 115.317 24.6588 114.706 13.2715H121.912C122.542 13.2717 123.164 13.4087 123.736 13.673C124.308 13.9372 124.816 14.3225 125.224 14.8021C125.633 15.2817 125.932 15.8443 126.102 16.4509C126.272 17.0576 126.308 17.6939 126.208 18.3158Z" fill="#975B9E"/>
</g>
</g>
<defs>
<filter id="filter0_d_176_643" x="7.31323" y="-13" width="136.374" height="177" filterUnits="userSpaceOnUse" color-interpolation-filters="sRGB">
<feFlood flood-opacity="0" result="BackgroundImageFix"/>
<feColorMatrix in="SourceAlpha" type="matrix" values="0 0 0 0 0 0 0 0 0 0 0 0 0 0 0 0 0 0 127 0" result="hardAlpha"/>
<feOffset/>
<feGaussianBlur stdDeviation="6.5"/>
<feComposite in2="hardAlpha" operator="out"/>
<feColorMatrix type="matrix" values="0 0 0 0 0.592157 0 0 0 0 0.356863 0 0 0 0 0.619608 0 0 0 1 0"/>
<feBlend mode="normal" in2="BackgroundImageFix" result="effect1_dropShadow_176_643"/>
<feBlend mode="normal" in="SourceGraphic" in2="effect1_dropShadow_176_643" result="shape"/>
</filter>
<clipPath id="clip0_176_643">
<rect width="151" height="151" fill="white"/>
</clipPath>
</defs>
</svg>
