<svg width="151" height="151" viewBox="0 0 151 151" fill="none" xmlns="http://www.w3.org/2000/svg">
<g clip-path="url(#clip0_176_623)">
<g filter="url(#filter0_d_176_623)">
<path d="M140.241 16.1146C139.699 13.0002 137.103 10.57 133.965 10.2161C127.807 9.48471 121.484 9.60268 115.208 10.4521C93.2896 13.3305 73.0226 25.9531 60.1168 44.1439L49.6883 40.7464C45.701 39.4488 41.2418 40.8172 38.5757 44.1203L27.5102 57.8755C23.3341 62.783 25.1744 70.9936 31.1673 73.4474L46.4796 80.148C42.3743 83.8758 39.3071 88.6182 37.3488 92.2044C36.4287 93.9032 36.5702 95.9322 37.7027 97.4894C39.1183 99.4949 41.6193 99.7544 43.8371 99.1174C42.2799 102.774 40.8643 106.502 39.6138 110.372C39.024 112.212 39.5194 114.17 40.9115 115.468C42.3035 116.765 44.2854 117.143 46.0785 116.435C49.8771 114.949 53.5105 113.297 57.0496 111.528C56.1058 114.736 58.1821 118.417 61.7212 118.37C62.6177 118.37 63.5379 118.11 64.3401 117.591C67.8083 115.421 72.3383 112.047 75.783 107.729L83.4274 122.617C86.2351 128.444 94.5401 129.789 99.188 125.306L112.235 113.415C115.373 110.56 116.435 106.007 114.901 102.114L110.867 91.8977C133.21 74.0844 145.361 44.0496 140.17 16.091L140.241 16.1146ZM135.593 16.9403C137.127 25.6228 136.985 34.5885 135.31 43.2474C125.637 35.0839 115.94 25.9531 107.186 16.7988C114.595 14.8877 122.286 14.1091 129.931 14.581C131.936 14.8641 135.098 14.2978 135.617 16.9403H135.593ZM30.0819 65.5906C29.6808 63.9155 30.0819 62.1931 31.1673 60.8247L42.2327 47.0696C43.6719 45.2764 46.0549 44.545 48.2019 45.2292L57.3091 48.1785C52.1657 56.4127 48.4615 65.4963 46.456 74.981L33.0312 69.1061C31.5448 68.4455 30.4594 67.1714 30.0819 65.5906ZM91.0954 98.7163C86.9429 100.627 82.6016 102.137 78.166 103.223L50.8208 77.5055C51.741 72.4092 53.251 67.431 55.1857 62.6414L92.7469 97.9613C92.2043 98.2208 91.6616 98.4567 91.0954 98.7163ZM61.8627 113.604L61.5796 113.415C61.9099 110.725 63.0896 104.001 58.418 105.558C53.8408 107.941 49.2637 110.136 44.3562 112.047L44.1202 111.811C45.7246 106.833 47.6357 102.09 49.7355 97.395C51.0096 92.6291 44.3798 94.2099 41.6901 94.7289L41.4777 94.4694C43.318 91.0955 46.2201 86.5891 50.0187 83.286L72.4799 104.402C69.4127 108.413 65.1187 111.598 61.8627 113.651V113.604ZM109.097 109.923L96.0501 121.815C93.5727 124.198 89.1607 123.56 87.6507 120.446L80.9501 107.399C86.7541 105.771 92.4166 103.577 97.7252 100.722C100.934 98.9758 104.048 97.0411 107.045 94.9177L110.56 103.813C111.386 105.889 110.796 108.343 109.097 109.9V109.923ZM115.68 81.0917C110.348 86.8014 104.025 91.8033 97.159 95.6491L57.2148 58.1114C66.086 39.6375 82.9084 24.7735 102.137 18.356C111.952 28.808 123.041 39.2128 134.06 48.3672C130.804 60.4472 124.481 71.7486 115.656 81.1153L115.68 81.0917Z" fill="#68D3E1"/>
</g>
<g filter="url(#filter1_d_176_623)">
<path d="M97.6545 36.9478C74.4147 38.3634 75.4764 72.1496 98.7398 72.126C121.98 70.7104 120.918 36.9242 97.6545 36.9478ZM107.587 63.3492C95.649 75.4292 77.4818 58.3709 88.8304 45.701C100.745 33.6211 118.912 50.6557 107.587 63.3492ZM53.5342 124.315L41.3598 137.268C39.26 139.51 42.6811 142.742 44.8045 140.501L56.9789 127.548C59.0787 125.306 55.6576 122.074 53.5342 124.315ZM27.4867 103.577C26.5429 102.68 25.0565 102.727 24.16 103.671L10.2397 118.464C9.34309 119.408 9.39028 120.918 10.334 121.791C11.2778 122.687 12.7642 122.64 13.6607 121.697L27.5811 106.903C28.4776 105.959 28.4304 104.449 27.4867 103.577ZM30.1292 123.254L17.9548 136.207C16.5156 137.622 17.6953 140.241 19.6772 140.194C20.3142 140.194 20.9276 139.934 21.3995 139.463L33.5739 126.51C35.6737 124.245 32.2762 121.036 30.1292 123.277V123.254ZM57.3564 77.2223L64.2221 83.687C66.4636 85.7868 69.6959 82.3893 67.4545 80.2423L60.5887 73.7776C58.3473 71.6778 55.115 75.0753 57.3564 77.2223ZM72.8103 91.7796C75.0517 93.8795 78.284 90.482 76.0426 88.335L72.5979 85.1026C70.3565 83.0028 67.1242 86.4003 69.3656 88.5473L72.8103 91.7796ZM77.4111 95.8378C77.4583 95.9793 77.529 96.0973 77.6234 96.2389C77.7178 96.3568 77.8122 96.4748 77.9065 96.5928C78.8031 97.5129 80.3603 97.5129 81.2568 96.5928C81.4692 96.3568 81.6579 96.1209 81.7523 95.8378C83.0972 91.5673 76.0426 91.5909 77.4111 95.8378Z" fill="#68D3E1"/>
</g>
</g>
<defs>
<filter id="filter0_d_176_623" x="12.2512" y="-3.26611" width="142.11" height="144.241" filterUnits="userSpaceOnUse" color-interpolation-filters="sRGB">
<feFlood flood-opacity="0" result="BackgroundImageFix"/>
<feColorMatrix in="SourceAlpha" type="matrix" values="0 0 0 0 0 0 0 0 0 0 0 0 0 0 0 0 0 0 127 0" result="hardAlpha"/>
<feOffset/>
<feGaussianBlur stdDeviation="6.5"/>
<feComposite in2="hardAlpha" operator="out"/>
<feColorMatrix type="matrix" values="0 0 0 0 0.407843 0 0 0 0 0.827451 0 0 0 0 0.882353 0 0 0 1 0"/>
<feBlend mode="normal" in2="BackgroundImageFix" result="effect1_dropShadow_176_623"/>
<feBlend mode="normal" in="SourceGraphic" in2="effect1_dropShadow_176_623" result="shape"/>
</filter>
<filter id="filter1_d_176_623" x="-3.4043" y="23.9478" width="132.05" height="130.31" filterUnits="userSpaceOnUse" color-interpolation-filters="sRGB">
<feFlood flood-opacity="0" result="BackgroundImageFix"/>
<feColorMatrix in="SourceAlpha" type="matrix" values="0 0 0 0 0 0 0 0 0 0 0 0 0 0 0 0 0 0 127 0" result="hardAlpha"/>
<feOffset/>
<feGaussianBlur stdDeviation="6.5"/>
<feComposite in2="hardAlpha" operator="out"/>
<feColorMatrix type="matrix" values="0 0 0 0 0.407843 0 0 0 0 0.827451 0 0 0 0 0.882353 0 0 0 1 0"/>
<feBlend mode="normal" in2="BackgroundImageFix" result="effect1_dropShadow_176_623"/>
<feBlend mode="normal" in="SourceGraphic" in2="effect1_dropShadow_176_623" result="shape"/>
</filter>
<clipPath id="clip0_176_623">
<rect width="151" height="151" fill="white"/>
</clipPath>
</defs>
</svg>
